<svg xmlns="http://www.w3.org/2000/svg" viewBox="0 0 32 32" role="img" aria-label="HEIC to JPG" shape-rendering="crispEdges"><clipPath id="r"><rect width="32" height="32" rx="7"/></clipPath><g clip-path="url(#r)"><rect x="0" y="0" width="4" height="4" fill="#fbf6ec"/><rect x="4" y="0" width="4" height="4" fill="#fbf6ec"/><rect x="8" y="0" width="4" height="4" fill="#ab6a8c"/><rect x="12" y="0" width="4" height="4" fill="#ab6a8c"/><rect x="16" y="0" width="4" height="4" fill="#ab6a8c"/><rect x="20" y="0" width="4" height="4" fill="#ab6a8c"/><rect x="24" y="0" width="4" height="4" fill="#ab6a8c"/><rect x="28" y="0" width="4" height="4" fill="#ab6a8c"/><rect x="0" y="4" width="4" height="4" fill="#fbf6ec"/><rect x="4" y="4" width="4" height="4" fill="#fbf6ec"/><rect x="8" y="4" width="4" height="4" fill="#ab6a8c"/><rect x="12" y="4" width="4" height="4" fill="#ab6a8c"/><rect x="16" y="4" width="4" height="4" fill="#bd82a2"/><rect x="20" y="4" width="4" height="4" fill="#bd82a2"/><rect x="24" y="4" width="4" height="4" fill="#ab6a8c"/><rect x="28" y="4" width="4" height="4" fill="#ab6a8c"/><rect x="0" y="8" width="4" height="4" fill="#ab6a8c"/><rect x="4" y="8" width="4" height="4" fill="#ab6a8c"/><rect x="8" y="8" width="4" height="4" fill="#ab6a8c"/><rect x="12" y="8" width="4" height="4" fill="#ab6a8c"/><rect x="16" y="8" width="4" height="4" fill="#ab6a8c"/><rect x="20" y="8" width="4" height="4" fill="#ab6a8c"/><rect x="24" y="8" width="4" height="4" fill="#ab6a8c"/><rect x="28" y="8" width="4" height="4" fill="#ab6a8c"/><rect x="0" y="12" width="4" height="4" fill="#ab6a8c"/><rect x="4" y="12" width="4" height="4" fill="#ab6a8c"/><rect x="8" y="12" width="4" height="4" fill="#ab6a8c"/><rect x="12" y="12" width="4" height="4" fill="#ab6a8c"/><rect x="16" y="12" width="4" height="4" fill="#ab6a8c"/><rect x="20" y="12" width="4" height="4" fill="#502e49"/><rect x="24" y="12" width="4" height="4" fill="#ab6a8c"/><rect x="28" y="12" width="4" height="4" fill="#ab6a8c"/><rect x="0" y="16" width="4" height="4" fill="#ab6a8c"/><rect x="4" y="16" width="4" height="4" fill="#ab6a8c"/><rect x="8" y="16" width="4" height="4" fill="#ab6a8c"/><rect x="12" y="16" width="4" height="4" fill="#ab6a8c"/><rect x="16" y="16" width="4" height="4" fill="#502e49"/><rect x="20" y="16" width="4" height="4" fill="#502e49"/><rect x="24" y="16" width="4" height="4" fill="#502e49"/><rect x="28" y="16" width="4" height="4" fill="#ab6a8c"/><rect x="0" y="20" width="4" height="4" fill="#ab6a8c"/><rect x="4" y="20" width="4" height="4" fill="#ab6a8c"/><rect x="8" y="20" width="4" height="4" fill="#502e49"/><rect x="12" y="20" width="4" height="4" fill="#502e49"/><rect x="16" y="20" width="4" height="4" fill="#502e49"/><rect x="20" y="20" width="4" height="4" fill="#502e49"/><rect x="24" y="20" width="4" height="4" fill="#502e49"/><rect x="28" y="20" width="4" height="4" fill="#502e49"/><rect x="0" y="24" width="4" height="4" fill="#3b2a44"/><rect x="4" y="24" width="4" height="4" fill="#3b2a44"/><rect x="8" y="24" width="4" height="4" fill="#3b2a44"/><rect x="12" y="24" width="4" height="4" fill="#502e49"/><rect x="16" y="24" width="4" height="4" fill="#502e49"/><rect x="20" y="24" width="4" height="4" fill="#502e49"/><rect x="24" y="24" width="4" height="4" fill="#502e49"/><rect x="28" y="24" width="4" height="4" fill="#502e49"/><rect x="0" y="28" width="4" height="4" fill="#241a2c"/><rect x="4" y="28" width="4" height="4" fill="#241a2c"/><rect x="8" y="28" width="4" height="4" fill="#241a2c"/><rect x="12" y="28" width="4" height="4" fill="#241a2c"/><rect x="16" y="28" width="4" height="4" fill="#241a2c"/><rect x="20" y="28" width="4" height="4" fill="#241a2c"/><rect x="24" y="28" width="4" height="4" fill="#241a2c"/><rect x="28" y="28" width="4" height="4" fill="#241a2c"/></g></svg>